<?xml version="1.0" encoding="UTF-8"?>
<svg version="1.1" xmlns="http://www.w3.org/2000/svg" width="500" height="160">
<path d="M0 0 C165 0 330 0 500 0 C500 52.8 500 105.6 500 160 C335 160 170 160 0 160 C0 107.2 0 54.4 0 0 Z " fill="#202420" transform="translate(0,0)"/>
<path d="M0 0 C0.33 2.97 0.66 5.94 1 9 C1.69867188 8.43410156 2.39734375 7.86820312 3.1171875 7.28515625 C4.02726562 6.55167969 4.93734375 5.81820312 5.875 5.0625 C6.77992188 4.33160156 7.68484375 3.60070312 8.6171875 2.84765625 C12.23070943 0.0456958 14.09865445 -0.11513193 18.625 -0.0625 C20.12933594 -0.04896484 20.12933594 -0.04896484 21.6640625 -0.03515625 C22.43492187 -0.02355469 23.20578125 -0.01195312 24 0 C24 0.66 24 1.32 24 2 C24.7425 2.20625 25.485 2.4125 26.25 2.625 C29.79231177 4.39615589 31.02446841 6.63427951 33 10 C33.43570313 9.52949219 33.87140625 9.05898437 34.3203125 8.57421875 C39.60659616 3.04764947 43.64100071 -0.0858095 51.5 -0.5 C55.14009122 -0.39119293 57.59165719 -0.12896568 60.5 2.125 C65.46931086 7.83970749 66.44033712 12.49254399 66.44140625 19.79296875 C66.46121803 21.03473625 66.46121803 21.03473625 66.48143005 22.30158997 C66.52212829 24.93026176 66.54395089 27.55858549 66.5625 30.1875 C66.58630113 32.82702132 66.61439922 35.46621568 66.65428162 38.10554504 C66.67860848 39.74368372 66.69349159 41.38199606 66.69789124 43.02030945 C66.75072378 46.86449734 66.81777736 48.72666605 69 52 C72.05429073 53.21284876 72.05429073 53.21284876 75 54 C75 54.99 75 55.98 75 57 C65.76 57 56.52 57 47 57 C47 56.01 47 55.02 47 54 C48.134375 53.71125 49.26875 53.4225 50.4375 53.125 C51.613125 52.75375 52.78875 52.3825 54 52 C56.48016941 47.03966118 55.31286894 39.35240111 55.35009766 33.83349609 C55.3666675 32.03128149 55.3939713 30.22913289 55.43212891 28.42724609 C55.48686906 25.82875493 55.50876459 23.23180238 55.5234375 20.6328125 C55.55744156 19.42638596 55.55744156 19.42638596 55.59213257 18.19558716 C55.57736454 14.28842482 55.38881372 12.42650781 52.71337891 9.49169922 C49.10868954 7.50999578 45.97311782 7.20693147 42 8 C38.85655565 9.74635797 36.53137274 11.46862726 34 14 C33.80018658 16.59474687 33.72016755 19.08035894 33.734375 21.67578125 C33.73246155 22.43795456 33.7305481 23.20012787 33.72857666 23.98539734 C33.72721444 25.6002129 33.73091345 27.2150394 33.73925781 28.82983398 C33.74991307 31.29240838 33.739387 33.75424591 33.7265625 36.21679688 C33.72788495 37.78645994 33.73044912 39.35612254 33.734375 40.92578125 C33.73032654 41.65928299 33.72627808 42.39278473 33.72210693 43.14851379 C33.75896017 47.20481252 34.20020492 50.34813178 36 54 C37.98 54 39.96 54 42 54 C42 54.99 42 55.98 42 57 C32.76 57 23.52 57 14 57 C14 56.01 14 55.02 14 54 C15.134375 53.690625 16.26875 53.38125 17.4375 53.0625 C20.78775099 52.37075469 20.78775099 52.37075469 22 51 C22.10107439 48.30779772 22.13969767 45.64181553 22.1328125 42.94921875 C22.13376923 42.13886673 22.13472595 41.32851471 22.13571167 40.49360657 C22.13639368 38.77446414 22.13453792 37.05531915 22.13037109 35.33618164 C22.12504378 32.70908777 22.1303046 30.08216649 22.13671875 27.45507812 C22.13605757 25.78645796 22.13477557 24.11783789 22.1328125 22.44921875 C22.13483673 21.66367111 22.13686096 20.87812347 22.13894653 20.06877136 C22.17461015 14.93642345 22.17461015 14.93642345 21 10 C15.69700335 8.23233445 10.752744 8.2989024 5.5625 10.375 C2.95949159 11.89486018 2.95949159 11.89486018 1 14 C0.80024043 16.60629705 0.72016465 19.10397485 0.734375 21.7109375 C0.73246155 22.47548248 0.7305481 23.24002747 0.72857666 24.02774048 C0.7272146 25.6467522 0.7309125 27.26577484 0.73925781 28.88476562 C0.74992807 31.35832433 0.73937875 33.8311519 0.7265625 36.3046875 C0.72788467 37.87760577 0.73044824 39.45052358 0.734375 41.0234375 C0.73032654 41.76210052 0.72627808 42.50076355 0.72210693 43.2618103 C0.73738293 48.46781856 0.73738293 48.46781856 3 53 C6.05908413 53.81584568 6.05908413 53.81584568 9 54 C9 54.99 9 55.98 9 57 C-0.24 57 -9.48 57 -19 57 C-19 56.01 -19 55.02 -19 54 C-17.865625 53.731875 -16.73125 53.46375 -15.5625 53.1875 C-13.7990625 52.5996875 -13.7990625 52.5996875 -12 52 C-10.73879407 48.21638222 -10.83762408 44.66116158 -10.83203125 40.71875 C-10.82870285 39.9088562 -10.82537445 39.0989624 -10.82194519 38.26452637 C-10.81688541 36.55314705 -10.81453657 34.84175788 -10.81469727 33.13037109 C-10.81250829 30.50992658 -10.79433602 27.88990142 -10.77539062 25.26953125 C-10.77245703 23.60677227 -10.77047201 21.9440113 -10.76953125 20.28125 C-10.76234573 19.49681519 -10.75516022 18.71238037 -10.74775696 17.9041748 C-10.76390428 14.0683526 -10.82103219 12.26845171 -13 9 C-16.56769552 8.26393501 -16.56769552 8.26393501 -20 8 C-20 7.34 -20 6.68 -20 6 C-17.60824639 4.98914564 -15.21238415 3.99120797 -12.8125 3 C-11.80219727 2.57074219 -11.80219727 2.57074219 -10.77148438 2.1328125 C-7.05006206 0.60793701 -4.03528592 -0.37610432 0 0 Z " fill="#EFE7D7" transform="translate(196,63)"/>
<path d="M0 0 C1.49695228 0.6947458 2.98081449 1.41890931 4.4453125 2.1796875 C6.89801513 3.39296471 8.60349658 3.71507801 11.27734375 3.0859375 C12.91410632 1.1259094 12.91410632 1.1259094 14.27734375 -0.9140625 C15.26734375 -0.9140625 16.25734375 -0.9140625 17.27734375 -0.9140625 C17.27734375 8.3259375 17.27734375 17.5659375 17.27734375 27.0859375 C16.28734375 27.0859375 15.29734375 27.0859375 14.27734375 27.0859375 C14.1071875 26.43367188 13.93703125 25.78140625 13.76171875 25.109375 C11.75437519 17.87012535 9.551848 12.56772625 3.27734375 8.0859375 C3.27734375 7.4259375 3.27734375 6.7659375 3.27734375 6.0859375 C-3.60103488 4.36634284 -10.11398742 4.49430266 -16.72265625 7.0859375 C-19.00233975 8.92439194 -19.56456143 10.25351987 -20.10546875 13.1015625 C-20.45161059 17.52615823 -20.09815585 19.93435491 -17.328125 23.4765625 C-13.35750945 27.83948262 -8.53167742 30.5813244 -3.47265625 33.5234375 C19.17637796 47.15222054 19.17637796 47.15222054 21.27734375 55.0859375 C22.21009016 62.14945404 22.27403974 68.42824089 17.91015625 74.30078125 C12.92524425 79.7507927 8.94005299 83.89921115 1.29296875 84.2890625 C-0.29550762 84.31031302 -1.88407059 84.32572152 -3.47265625 84.3359375 C-4.25898437 84.3565625 -5.0453125 84.3771875 -5.85546875 84.3984375 C-11.29873797 84.4346054 -14.82533395 83.42260796 -19.72265625 81.0859375 C-23.4333913 80.58397456 -23.4333913 80.58397456 -26.72265625 81.0859375 C-27.38265625 82.0759375 -28.04265625 83.0659375 -28.72265625 84.0859375 C-29.71265625 84.0859375 -30.70265625 84.0859375 -31.72265625 84.0859375 C-31.72265625 75.1759375 -31.72265625 66.2659375 -31.72265625 57.0859375 C-30.73265625 57.0859375 -29.74265625 57.0859375 -28.72265625 57.0859375 C-28.408125 57.97796875 -28.09359375 58.87 -27.76953125 59.7890625 C-27.3415625 60.95953125 -26.91359375 62.13 -26.47265625 63.3359375 C-26.055 64.49609375 -25.63734375 65.65625 -25.20703125 66.8515625 C-23.73604337 70.05676767 -22.26577842 71.71670403 -19.72265625 74.0859375 C-19.72265625 74.7459375 -19.72265625 75.4059375 -19.72265625 76.0859375 C-11.3293616 78.32414941 -1.80731497 80.13537113 6.27734375 76.0859375 C8.84645282 72.04876611 9.17673429 66.72770731 8.27734375 62.0859375 C5.51337332 56.91026738 2.23409136 54.29242615 -2.59765625 51.2734375 C-3.25241943 50.84748291 -3.90718262 50.42152832 -4.58178711 49.98266602 C-7.88632304 47.84187214 -11.22754949 45.77398363 -14.609375 43.7578125 C-21.63181704 39.51989421 -26.96859861 35.64197691 -30.72265625 28.0859375 C-31.05265625 27.4259375 -31.38265625 26.7659375 -31.72265625 26.0859375 C-32.47485908 19.98262088 -32.58302589 14.55858799 -29.28515625 9.2109375 C-21.72097659 -0.42417766 -12.0445809 -4.0436613 0 0 Z " fill="#F0E8D7" transform="translate(88.72265625,36.9140625)"/>
<path d="M0 0 C0.79921875 0.0009668 1.5984375 0.00193359 2.421875 0.00292969 C7.9481736 0.16826567 11.62787874 1.02347218 15.8125 4.859375 C18.25057724 8.02307046 19.36792534 10.68990109 19.44384766 14.68847656 C19.46371735 15.48900452 19.48358704 16.28953247 19.50405884 17.11431885 C19.51561005 17.96862488 19.52716125 18.82293091 19.5390625 19.703125 C19.55842865 20.58530701 19.5777948 21.46748901 19.5977478 22.37640381 C19.65742848 25.18833816 19.70388283 28.0003137 19.75 30.8125 C19.78819038 32.72137181 19.82724273 34.63022659 19.8671875 36.5390625 C19.96312058 41.21340296 20.04719416 45.88782409 20.125 50.5625 C23.79010225 50.75961474 24.82644535 50.77480553 27.9375 48.5625 C28.659375 47.9025 29.38125 47.2425 30.125 46.5625 C30.0408797 49.42259035 29.55681261 51.10898827 27.5703125 53.1953125 C22.05805304 57.9299088 19.35526456 58.67911717 12.125 58.5625 C10.805 55.9225 9.485 53.2825 8.125 50.5625 C7.43792969 51.05621094 6.75085938 51.54992187 6.04296875 52.05859375 C5.14191406 52.69925781 4.24085938 53.33992188 3.3125 54 C2.41917969 54.63808594 1.52585938 55.27617188 0.60546875 55.93359375 C-4.42891442 59.2396375 -10.02572338 59.60552365 -15.875 58.5625 C-19.54148852 55.91723845 -21.4605756 52.8057732 -22.875 48.5625 C-23.42156617 42.87821182 -22.31805136 39.05998584 -18.875 34.5625 C-14.18206888 29.64609597 -9.40585101 28.15003888 -2.875 26.5625 C-2.875 25.9025 -2.875 25.2425 -2.875 24.5625 C-1.62836669 24.05416409 -0.37750613 23.55618855 0.875 23.0625 C1.57109375 22.7840625 2.2671875 22.505625 2.984375 22.21875 C5.125 21.5625 5.125 21.5625 9.125 21.5625 C8.98316304 19.81217156 8.83636571 18.06224466 8.6875 16.3125 C8.60628906 15.33796875 8.52507812 14.3634375 8.44140625 13.359375 C8.07900388 9.88825254 8.07900388 9.88825254 7.125 6.5625 C3.91537044 5.49262348 1.43600738 5.36168844 -1.9375 5.3125 C-3.00097656 5.28671875 -4.06445312 5.2609375 -5.16015625 5.234375 C-6.05605469 5.34265625 -6.95195312 5.4509375 -7.875 5.5625 C-10.23961717 9.10942575 -10.25933327 11.36397409 -10.53125 15.50390625 C-10.875 17.5625 -10.875 17.5625 -12.875 19.5625 C-16 19.6875 -16 19.6875 -18.875 19.5625 C-20.49318178 16.32613644 -20.44830409 13.0609579 -19.875 9.5625 C-14.88781151 1.78835324 -8.73908384 -0.02540431 0 0 Z " fill="#EFE7D7" transform="translate(142.875,62.4375)"/>
<path d="M0 0 C1.21042969 0.01546875 2.42085938 0.0309375 3.66796875 0.046875 C6.8125 0.25 6.8125 0.25 9.8125 1.25 C9.8125 1.91 9.8125 2.57 9.8125 3.25 C10.534375 3.435625 11.25625 3.62125 12 3.8125 C16.6743571 6.20161585 19.17643917 10.34181752 20.8125 15.25 C20.8125 17.56 20.8125 19.87 20.8125 22.25 C8.6025 22.25 -3.6075 22.25 -16.1875 22.25 C-14.42898718 33.74992474 -14.42898718 33.74992474 -9.1875 42.25 C-8.548125 43.19875 -7.90875 44.1475 -7.25 45.125 C-2.26650806 48.58293318 2.94846564 48.03285597 8.8125 47.25 C14.30091085 44.84280226 16.22857176 41.41785647 18.8125 36.25 C19.4725 36.25 20.1325 36.25 20.8125 36.25 C20.38015036 43.16759427 17.93804559 48.14461922 12.99609375 53.0546875 C8.07309361 57.35075026 5.49944864 58.40324309 -1.1875 58.4375 C-3.0746875 58.45876953 -3.0746875 58.45876953 -5 58.48046875 C-8.1875 58.25 -8.1875 58.25 -10.1875 56.25 C-10.93 56.04375 -11.6725 55.8375 -12.4375 55.625 C-17.73931597 52.97409201 -20.86795962 47.6431865 -23.0625 42.25 C-25.67913495 33.20929123 -25.5926069 21.96834237 -21.51953125 13.43359375 C-16.23010081 4.76265059 -10.56593002 -0.22649368 0 0 Z " fill="#EFE7D7" transform="translate(352.1875,62.75)"/>
<path d="M0 0 C1.21042969 0.01546875 2.42085938 0.0309375 3.66796875 0.046875 C6.8125 0.25 6.8125 0.25 9.8125 1.25 C9.8125 1.91 9.8125 2.57 9.8125 3.25 C10.534375 3.435625 11.25625 3.62125 12 3.8125 C16.6743571 6.20161585 19.17643917 10.34181752 20.8125 15.25 C20.8125 17.56 20.8125 19.87 20.8125 22.25 C8.6025 22.25 -3.6075 22.25 -16.1875 22.25 C-14.42898718 33.74992474 -14.42898718 33.74992474 -9.1875 42.25 C-8.548125 43.19875 -7.90875 44.1475 -7.25 45.125 C-2.26650806 48.58293318 2.94846564 48.03285597 8.8125 47.25 C14.30091085 44.84280226 16.22857176 41.41785647 18.8125 36.25 C19.4725 36.25 20.1325 36.25 20.8125 36.25 C20.38015036 43.16759427 17.93804559 48.14461922 12.99609375 53.0546875 C8.07309361 57.35075026 5.49944864 58.40324309 -1.1875 58.4375 C-3.0746875 58.45876953 -3.0746875 58.45876953 -5 58.48046875 C-8.1875 58.25 -8.1875 58.25 -10.1875 56.25 C-10.93 56.04375 -11.6725 55.8375 -12.4375 55.625 C-17.73931597 52.97409201 -20.86795962 47.6431865 -23.0625 42.25 C-25.67913495 33.20929123 -25.5926069 21.96834237 -21.51953125 13.43359375 C-16.23010081 4.76265059 -10.56593002 -0.22649368 0 0 Z " fill="#EFE7D7" transform="translate(300.1875,62.75)"/>
<path d="M0 0 C1.2065625 0.0309375 1.2065625 0.0309375 2.4375 0.0625 C2.7675 2.7025 3.0975 5.3425 3.4375 8.0625 C3.91058594 7.485 4.38367188 6.9075 4.87109375 6.3125 C10.1043479 0.43656552 10.1043479 0.43656552 13.83203125 -0.609375 C17.62959855 -0.7353308 19.79939217 -0.35771735 23 1.75 C24.71837645 4.51434472 25.01118682 5.86624487 24.4375 9.0625 C23.3125 10.875 23.3125 10.875 21.4375 12.0625 C18.4375 12.4375 18.4375 12.4375 15.4375 12.0625 C14.41730427 11.0831121 13.41600195 10.08354551 12.4375 9.0625 C9.98077108 8.39564062 9.98077108 8.39564062 7.4375 9.0625 C4.35758869 11.97448029 3.49090974 13.64203916 2.95166016 17.88720703 C2.93886621 19.36487678 2.94833666 20.84285696 2.9765625 22.3203125 C2.97747894 23.10518036 2.97839539 23.89004822 2.9793396 24.69869995 C2.98536139 26.35111572 3.00106469 28.0035213 3.02587891 29.65576172 C3.06248236 32.1862805 3.06689737 34.71533733 3.06640625 37.24609375 C3.07623472 38.85417933 3.08789055 40.462255 3.1015625 42.0703125 C3.10378815 42.82659943 3.10601379 43.58288635 3.10830688 44.36209106 C3.17638814 48.12042345 3.30174434 49.85886651 5.4375 53.0625 C9.00519552 53.79856499 9.00519552 53.79856499 12.4375 54.0625 C12.4375 54.7225 12.4375 55.3825 12.4375 56.0625 C2.8675 56.0625 -6.7025 56.0625 -16.5625 56.0625 C-16.5625 55.4025 -16.5625 54.7425 -16.5625 54.0625 C-15.61375 53.815 -14.665 53.5675 -13.6875 53.3125 C-10.5967545 52.3889734 -10.5967545 52.3889734 -9.3815918 50.49658203 C-8.19732006 46.97730059 -8.29735832 43.53707579 -8.33203125 39.8671875 C-8.33248947 39.07853302 -8.33294769 38.28987854 -8.3334198 37.47732544 C-8.33643445 35.81478363 -8.34429716 34.15224445 -8.35668945 32.48974609 C-8.37498438 29.93967742 -8.37719875 27.38997132 -8.37695312 24.83984375 C-8.38186723 23.22395518 -8.38769507 21.60806908 -8.39453125 19.9921875 C-8.39564407 19.22760223 -8.3967569 18.46301697 -8.39790344 17.67526245 C-8.35492654 13.73996093 -8.35492654 13.73996093 -9.5625 10.0625 C-11.88406597 9.65520772 -14.2193787 9.31811323 -16.5625 9.0625 C-16.5625 8.0725 -16.5625 7.0825 -16.5625 6.0625 C-15.63566406 5.71316406 -14.70882813 5.36382812 -13.75390625 5.00390625 C-12.55636719 4.54886719 -11.35882813 4.09382813 -10.125 3.625 C-8.93003906 3.17253906 -7.73507812 2.72007813 -6.50390625 2.25390625 C-0.99953199 0.02437883 -0.99953199 0.02437883 0 0 Z " fill="#F4ECDB" transform="translate(396.5625,62.9375)"/>
<path d="M0 0 C0.79921875 0.0009668 1.5984375 0.00193359 2.421875 0.00292969 C7.9481736 0.16826567 11.62787874 1.02347218 15.8125 4.859375 C18.25057724 8.02307046 19.36792534 10.68990109 19.44384766 14.68847656 C19.46371735 15.48900452 19.48358704 16.28953247 19.50405884 17.11431885 C19.51561005 17.96862488 19.52716125 18.82293091 19.5390625 19.703125 C19.55842865 20.58530701 19.5777948 21.46748901 19.5977478 22.37640381 C19.65742848 25.18833816 19.70388283 28.0003137 19.75 30.8125 C19.78819038 32.72137181 19.82724273 34.63022659 19.8671875 36.5390625 C19.96312058 41.21340296 20.04719416 45.88782409 20.125 50.5625 C23.79010225 50.75961474 24.82644535 50.77480553 27.9375 48.5625 C28.659375 47.9025 29.38125 47.2425 30.125 46.5625 C30.0408797 49.42259035 29.55681261 51.10898827 27.5703125 53.1953125 C22.05805304 57.9299088 19.35526456 58.67911717 12.125 58.5625 C9.06791602 52.84708213 7.92141507 48.50046691 8.24609375 42.04296875 C8.29443359 41.02138672 8.34277344 39.99980469 8.39257812 38.94726562 C8.44865234 37.89216797 8.50472656 36.83707031 8.5625 35.75 C8.61470703 34.67556641 8.66691406 33.60113281 8.72070312 32.49414062 C8.8499753 29.84993696 8.98492436 27.20614973 9.125 24.5625 C8.135 24.2325 7.145 23.9025 6.125 23.5625 C6.455 22.9025 6.785 22.2425 7.125 21.5625 C7.785 21.5625 8.445 21.5625 9.125 21.5625 C8.98316304 19.81217156 8.83636571 18.06224466 8.6875 16.3125 C8.60628906 15.33796875 8.52507812 14.3634375 8.44140625 13.359375 C8.07900388 9.88825254 8.07900388 9.88825254 7.125 6.5625 C3.91537044 5.49262348 1.43600738 5.36168844 -1.9375 5.3125 C-3.00097656 5.28671875 -4.06445312 5.2609375 -5.16015625 5.234375 C-6.50400391 5.39679688 -6.50400391 5.39679688 -7.875 5.5625 C-10.23961717 9.10942575 -10.25933327 11.36397409 -10.53125 15.50390625 C-10.875 17.5625 -10.875 17.5625 -12.875 19.5625 C-16 19.6875 -16 19.6875 -18.875 19.5625 C-20.49318178 16.32613644 -20.44830409 13.0609579 -19.875 9.5625 C-14.88781151 1.78835324 -8.73908384 -0.02540431 0 0 Z " fill="#F4ECDC" transform="translate(142.875,62.4375)"/>
<path d="M0 0 C0 6.93 0 13.86 0 21 C-11.23076923 27.15384615 -11.23076923 27.15384615 -17 26 C-19.68610593 23.86489016 -20.75540751 22.2552671 -21.4140625 18.875 C-21.69096196 14.56119793 -21.26436661 12.4245888 -18.9375 8.6875 C-13.6621997 3.86116143 -7.35044311 0 0 0 Z " fill="#262925" transform="translate(152,88)"/>
<path d="M0 0 C2.7803854 1.90358336 4.56139935 3.95838719 6 7 C6.33 9.64 6.66 12.28 7 15 C-1.25 15 -9.5 15 -18 15 C-16.95093387 8.70560321 -15.48456723 5.76063026 -11.3125 1.125 C-7.54637314 -0.70716982 -4.07554459 -0.9730539 0 0 Z " fill="#333631" transform="translate(354,67)"/>
<path d="M0 0 C2.7803854 1.90358336 4.56139935 3.95838719 6 7 C6.33 9.64 6.66 12.28 7 15 C-1.25 15 -9.5 15 -18 15 C-16.95093387 8.70560321 -15.48456723 5.76063026 -11.3125 1.125 C-7.54637314 -0.70716982 -4.07554459 -0.9730539 0 0 Z " fill="#333631" transform="translate(302,67)"/>
<path d="M0 0 C6.41143504 0.65551087 10.62538883 3.31187936 14.7890625 8.28515625 C17.64785441 12.91837072 17.7890625 14.52914053 17.7890625 20.28515625 C5.9090625 20.28515625 -5.9709375 20.28515625 -18.2109375 20.28515625 C-18.2109375 19.95515625 -18.2109375 19.62515625 -18.2109375 19.28515625 C-10.2909375 19.28515625 -2.3709375 19.28515625 5.7890625 19.28515625 C4.20606207 10.32220145 4.20606207 10.32220145 -1.2109375 4.28515625 C-4.55365406 3.51730405 -7.78716328 3.29845246 -11.2109375 3.28515625 C-8.02755576 -0.72590474 -4.8057525 -0.14582099 0 0 Z " fill="#F8EFDF" transform="translate(355.2109375,63.71484375)"/>
<path d="M0 0 C6.41143504 0.65551087 10.62538883 3.31187936 14.7890625 8.28515625 C17.64785441 12.91837072 17.7890625 14.52914053 17.7890625 20.28515625 C5.9090625 20.28515625 -5.9709375 20.28515625 -18.2109375 20.28515625 C-18.2109375 19.95515625 -18.2109375 19.62515625 -18.2109375 19.28515625 C-10.2909375 19.28515625 -2.3709375 19.28515625 5.7890625 19.28515625 C4.20606207 10.32220145 4.20606207 10.32220145 -1.2109375 4.28515625 C-4.55365406 3.51730405 -7.78716328 3.29845246 -11.2109375 3.28515625 C-8.02755576 -0.72590474 -4.8057525 -0.14582099 0 0 Z " fill="#F8EFDF" transform="translate(303.2109375,63.71484375)"/>
<path d="M0 0 C1.24716797 0.02030273 1.24716797 0.02030273 2.51953125 0.04101562 C4.55497066 0.07610941 6.59007291 0.12990772 8.625 0.1875 C8.625 0.5175 8.625 0.8475 8.625 1.1875 C2.19 1.6825 2.19 1.6825 -4.375 2.1875 C-2.065 2.5175 0.245 2.8475 2.625 3.1875 C2.625 3.5175 2.625 3.8475 2.625 4.1875 C1.85414063 4.22488281 1.08328125 4.26226562 0.2890625 4.30078125 C-1.21527344 4.39939453 -1.21527344 4.39939453 -2.75 4.5 C-3.74773437 4.55800781 -4.74546875 4.61601563 -5.7734375 4.67578125 C-6.63195312 4.84464844 -7.49046875 5.01351562 -8.375 5.1875 C-10.73961717 8.73442575 -10.75933327 10.98897409 -11.03125 15.12890625 C-11.375 17.1875 -11.375 17.1875 -13.375 19.1875 C-16.5 19.3125 -16.5 19.3125 -19.375 19.1875 C-20.99318178 15.95113644 -20.94830409 12.6859579 -20.375 9.1875 C-15.14607254 1.03652484 -9.04349396 -0.28125699 0 0 Z " fill="#E3DCCC" transform="translate(143.375,62.8125)"/>
<path d="M0 0 C1.90368048 2.79953012 1.99184124 4.15773599 1.8125 7.625 C1 11 1 11 -2 13 C-5 13.375 -5 13.375 -8 13 C-10.59814888 10.74827097 -10.95716454 9.34982295 -11.375 5.9375 C-11 3 -11 3 -10 1.125 C-6.74686316 -0.70488947 -3.68609891 -0.18128355 0 0 Z " fill="#EDE5D5" transform="translate(443,108)"/>
<path d="M0 0 C1.65 0 3.3 0 5 0 C5.33 2.64 5.66 5.28 6 8 C6.47308594 7.4225 6.94617188 6.845 7.43359375 6.25 C12.77054227 0.25763675 12.77054227 0.25763675 16.53515625 -0.53125 C18.74081982 -0.50328596 20.82548076 -0.36241987 23 0 C23 0.33 23 0.66 23 1 C21.783125 1.04125 20.56625 1.0825 19.3125 1.125 C15.86172941 1.53420642 14.31806786 2.23074057 12.125 4.9375 C11.42375 5.948125 10.7225 6.95875 10 8 C8 10 8 10 4 11 C4 7.7 4 4.4 4 1 C2.35 1.33 0.7 1.66 -1 2 C-0.67 1.34 -0.34 0.68 0 0 Z " fill="#B7B2A5" transform="translate(394,63)"/>
<path d="M0 0 C0.66 0.33 1.32 0.66 2 1 C0.61122646 4.35620271 -0.91677965 6.07298728 -4 8 C-4.66 8 -5.32 8 -6 8 C-6 7.34 -6 6.68 -6 6 C-6.66 5.34 -7.32 4.68 -8 4 C-6.71349294 3.30289269 -5.42059335 2.61757124 -4.125 1.9375 C-3.40570313 1.55464844 -2.68640625 1.17179687 -1.9453125 0.77734375 C-1.30335938 0.52082031 -0.66140625 0.26429687 0 0 Z " fill="#CFC9BA" transform="translate(150,109)"/>
<path d="M0 0 C2 1 2 1 4 4 C1.69 4.66 -0.62 5.32 -3 6 C-2.67 5.01 -2.34 4.02 -2 3 C-3.98 3.33 -5.96 3.66 -8 4 C-5.31143836 2.20762558 -3.0466145 1.01553817 0 0 Z " fill="#ADA99D" transform="translate(148,84)"/>
<path d="M0 0 C0.66 0.33 1.32 0.66 2 1 C-0.8689341 4.50647501 -3.7317654 7.85281112 -7 11 C-7 7 -7 7 -5.46875 5.078125 C-4.8190625 4.47484375 -4.169375 3.8715625 -3.5 3.25 C-2.8503125 2.63640625 -2.200625 2.0228125 -1.53125 1.390625 C-1.0259375 0.93171875 -0.520625 0.4728125 0 0 Z " fill="#CFC9BB" transform="translate(236,66)"/>
<path d="M0 0 C0.66 0 1.32 0 2 0 C1.75 3.375 1.75 3.375 1 7 C-1.5335908 8.94241961 -2.78187214 9 -6 9 C-5.071875 7.88625 -5.071875 7.88625 -4.125 6.75 C-2.39562719 4.51198812 -1.13893339 2.56260013 0 0 Z " fill="#D7D1C2" transform="translate(371,99)"/>
<path d="M0 0 C0.66 0 1.32 0 2 0 C1.75 3.375 1.75 3.375 1 7 C-1.5335908 8.94241961 -2.78187214 9 -6 9 C-5.071875 7.88625 -5.071875 7.88625 -4.125 6.75 C-2.39562719 4.51198812 -1.13893339 2.56260013 0 0 Z " fill="#D7D1C2" transform="translate(319,99)"/>
<path d="M0 0 C0.66 0.33 1.32 0.66 2 1 C0.68 2.32 -0.64 3.64 -2 5 C-1.34 5.66 -0.68 6.32 0 7 C-1.8125 7.625 -1.8125 7.625 -4 8 C-4.99 7.34 -5.98 6.68 -7 6 C-4.69 4.02 -2.38 2.04 0 0 Z " fill="#BCB7AA" transform="translate(205,65)"/>
<path d="M0 0 C0.66 0.33 1.32 0.66 2 1 C-0.475 2.485 -0.475 2.485 -3 4 C-2.34 4.66 -1.68 5.32 -1 6 C-2.98 6 -4.96 6 -7 6 C-7 5.01 -7 4.02 -7 3 C-4.69631264 1.93347808 -2.35981813 0.93578995 0 0 Z " fill="#AFAA9E" transform="translate(387,66)"/>
<path d="M0 0 C0.66 0.33 1.32 0.66 2 1 C1.67 1.99 1.34 2.98 1 4 C-0.98 4 -2.96 4 -5 4 C-5 3.34 -5 2.68 -5 2 C-2.625 0.9375 -2.625 0.9375 0 0 Z " fill="#CDC7B9" transform="translate(181,67)"/>
<path d="M0 0 C-0.28875 0.515625 -0.5775 1.03125 -0.875 1.5625 C-2.28780027 4.62356725 -3.1248517 7.74944918 -4 11 C-4.33 11 -4.66 11 -5 11 C-5.36637589 4.64948454 -5.36637589 4.64948454 -3.625 1.5625 C-2 0 -2 0 0 0 Z " fill="#5A5B53" transform="translate(137,67)"/>
<path d="M0 0 C-1.39332574 3.36720387 -2.9789286 4.9859524 -6 7 C-5.37162381 3.35541809 -4.14650034 0 0 0 Z " fill="#D5CEC0" transform="translate(130,66)"/>
</svg>
